<svg width="24" height="24" viewBox="0 0 24 24" fill="none" xmlns="http://www.w3.org/2000/svg">
<path fill-rule="evenodd" clip-rule="evenodd" d="M12 3C7.02944 3 3 7.02944 3 12C3 16.9706 7.02944 21 12 21C16.9706 21 21 16.9706 21 12C21 7.02944 16.9706 3 12 3ZM8.89737 13.1224C8.76876 13.1231 8.64437 13.0764 8.54792 12.9913C8.50201 12.9485 8.46544 12.8966 8.44039 12.839C8.41535 12.7814 8.4024 12.7193 8.40236 12.6565C8.4013 12.5086 8.45583 12.3656 8.5552 12.2561L13.0176 6.84734C13.073 6.77162 13.1452 6.70982 13.2286 6.66686C13.312 6.6239 13.4043 6.60098 13.4981 6.59985C13.5774 6.60208 13.6549 6.62303 13.7245 6.66099C13.7941 6.69895 13.8537 6.75278 13.8985 6.81819C13.9425 6.89985 13.9654 6.99114 13.9654 7.08389C13.9654 7.17664 13.9425 7.26793 13.8985 7.34959L12.4935 10.9894H15.1069C15.236 10.9858 15.3614 11.0329 15.4563 11.1205C15.5047 11.163 15.5428 11.2158 15.568 11.275C15.5932 11.3342 15.6048 11.3983 15.6019 11.4626C15.6037 11.5356 15.5904 11.6082 15.5628 11.6759C15.5352 11.7435 15.494 11.8047 15.4418 11.8557L11.0012 17.2718C10.9451 17.3485 10.8717 17.4109 10.7869 17.4539C10.7022 17.4969 10.6085 17.5193 10.5134 17.5193C10.4332 17.5182 10.3545 17.4969 10.2845 17.4575C10.2146 17.4181 10.1556 17.3617 10.1131 17.2936C10.0671 17.2126 10.043 17.1211 10.043 17.0279C10.043 16.9348 10.0671 16.8432 10.1131 16.7622L11.5107 13.1224H8.89737Z" fill="#F43630"/>
</svg>
